<svg width="514" height="514" viewBox="0 0 514 514" fill="none" xmlns="http://www.w3.org/2000/svg">
<g clip-path="url(#clip0_226_168)">
<rect width="514" height="514" fill="#F91D29"/>
<path d="M83.4601 -1.5L46 214.306L8.5399 -1.50001L83.4601 -1.5Z" stroke="#FF8189" stroke-width="4"/>
<path d="M425.54 515.5L463 299.694L500.46 515.5L425.54 515.5Z" stroke="#FF8189" stroke-width="4"/>
<path d="M164.46 -1.5L127 214.306L89.5399 -1.50001L164.46 -1.5Z" stroke="#FF8189" stroke-width="4"/>
<path d="M344.54 515.5L382 299.694L419.46 515.5L344.54 515.5Z" stroke="#FF8189" stroke-width="4"/>
<path d="M248.46 -1.5L211 214.306L173.54 -1.50001L248.46 -1.5Z" stroke="#FF8189" stroke-width="4"/>
<path d="M260.54 515.5L298 299.694L335.46 515.5L260.54 515.5Z" stroke="#FF8189" stroke-width="4"/>
<path d="M332.46 -1.5L295 214.306L257.54 -1.50001L332.46 -1.5Z" stroke="#FF8189" stroke-width="4"/>
<path d="M176.54 515.5L214 299.694L251.46 515.5L176.54 515.5Z" stroke="#FF8189" stroke-width="4"/>
<path d="M416.46 -1.5L379 214.306L341.54 -1.50001L416.46 -1.5Z" stroke="#FF8189" stroke-width="4"/>
<path d="M92.5399 515.5L130 299.694L167.46 515.5L92.5399 515.5Z" stroke="#FF8189" stroke-width="4"/>
<path d="M500.46 -1.5L463 214.306L425.54 -1.50001L500.46 -1.5Z" stroke="#FF8189" stroke-width="4"/>
<path d="M8.53988 515.5L46 299.694L83.4601 515.5L8.53988 515.5Z" stroke="#FF8189" stroke-width="4"/>
</g>
<defs>
<clipPath id="clip0_226_168">
<rect width="514" height="514" fill="white"/>
</clipPath>
</defs>
</svg>
