<svg width="300" height="300" viewBox="0 0 300 300" fill="none" xmlns="http://www.w3.org/2000/svg">
<rect width="300" height="300" fill="#FF9501"/>
<path d="M286.489 150.081C286.489 153.085 243.814 154.461 243.689 157.465C243.439 160.468 285.362 168.478 284.862 171.356C284.361 174.359 242.062 169.103 241.437 171.982C240.686 174.985 280.857 189.377 279.981 192.255C279.105 195.133 238.058 183.245 236.932 185.998C235.805 188.751 273.098 209.4 271.722 212.028C270.345 214.781 231.801 196.51 230.174 199.138C228.547 201.766 262.211 227.921 260.459 230.299C258.707 232.802 223.416 208.774 221.414 211.027C219.411 213.279 248.57 244.44 246.442 246.567C244.315 248.695 213.154 219.536 210.902 221.539C208.649 223.541 232.551 258.706 230.174 260.584C227.796 262.336 201.516 228.672 199.013 230.299C196.51 231.926 214.656 270.47 211.903 271.846C209.275 273.223 188.626 235.805 185.873 237.056C183.12 238.183 195.008 279.105 192.13 280.106C189.252 280.982 174.86 240.936 171.857 241.562C168.978 242.313 174.234 284.611 171.231 284.987C168.227 285.487 160.343 243.564 157.34 243.814C154.336 244.065 152.96 286.613 149.956 286.613C146.953 286.613 145.576 243.939 142.573 243.814C139.569 243.564 131.56 285.487 128.682 284.987C125.678 284.486 130.935 242.187 128.056 241.562C125.053 240.811 110.661 280.982 107.783 280.106C104.905 279.23 116.793 238.183 114.04 237.056C111.287 235.93 90.6382 273.223 88.0101 271.846C85.257 270.47 103.528 231.926 100.9 230.299C98.272 228.672 72.1169 262.336 69.7391 260.584C67.2362 258.832 91.2639 223.541 89.0113 221.539C86.7587 219.536 55.5978 248.695 53.4704 246.567C51.3429 244.44 80.5015 213.279 78.4992 211.027C76.4969 208.774 41.3314 232.676 39.4543 230.299C37.7023 227.921 71.366 201.641 69.7391 199.138C68.1122 196.635 29.5679 214.781 28.1913 212.028C26.8147 209.4 64.2328 188.751 62.9813 185.998C61.855 183.245 20.933 195.133 19.9318 192.255C19.0558 189.377 59.1019 174.985 58.4762 171.982C57.7253 169.103 15.4266 174.359 15.0512 171.356C14.5506 168.352 56.4739 160.468 56.2236 157.465C55.9733 154.461 13.4243 153.085 13.4243 150.081C13.4243 147.078 56.0984 145.701 56.2236 142.698C56.599 139.569 14.8009 131.685 15.1763 128.682C15.6769 125.678 57.9756 130.934 58.6013 128.056C59.3522 125.053 19.1809 110.661 20.0569 107.783C20.933 104.904 61.9802 116.793 63.1065 114.04C64.2328 111.287 26.9399 90.638 28.3165 88.01C29.693 85.2568 68.2374 103.528 69.8643 100.9C71.4911 98.2718 37.8274 72.1167 39.5794 69.7389C41.3314 67.236 76.622 91.2637 78.6243 89.0111C80.6266 86.7585 51.4681 55.5977 53.5955 53.4702C55.723 51.3428 86.8838 80.5013 89.1364 78.499C91.389 76.4967 67.4865 41.3312 69.8643 39.4541C72.242 37.7021 98.5222 71.3658 101.025 69.7389C103.528 68.1121 85.3821 29.5677 88.1353 28.1911C90.7633 26.8145 111.412 64.2326 114.165 62.9811C116.918 61.8549 105.03 20.9328 107.908 19.9316C110.786 19.0556 125.178 59.1017 128.181 58.476C131.06 57.7251 125.804 15.4264 128.807 15.051C131.811 14.5504 139.695 56.4737 142.698 56.2234C145.702 55.9731 147.078 13.4241 150.082 13.4241C153.085 13.4241 154.462 56.0982 157.465 56.2234C160.469 56.4737 168.478 14.5504 171.356 15.051C174.36 15.5516 169.103 57.8502 171.982 58.476C174.985 59.2268 189.377 19.0556 192.255 19.9316C195.133 20.8076 183.245 61.8549 185.998 62.9811C188.751 64.1074 209.4 26.8145 212.028 28.1911C214.781 29.5677 196.51 68.1121 199.138 69.7389C201.766 71.3658 227.921 37.7021 230.299 39.4541C232.802 41.2061 208.774 76.4967 211.027 78.499C213.279 80.5013 244.44 51.3428 246.568 53.4702C248.695 55.5977 219.536 86.7585 221.539 89.0111C223.541 91.2637 258.707 67.3612 260.584 69.7389C262.336 72.1167 228.672 98.3969 230.299 100.9C231.926 103.403 270.47 85.2568 271.847 88.01C273.223 90.638 235.805 111.287 237.057 114.04C238.183 116.793 279.105 104.904 280.106 107.783C280.982 110.661 240.936 125.053 241.562 128.056C242.313 130.934 284.611 125.678 284.987 128.682C285.487 131.685 243.564 139.569 243.814 142.573C243.94 145.576 286.489 146.953 286.489 150.081Z" stroke="#FFC166" stroke-width="4" stroke-miterlimit="10" stroke-linecap="round" stroke-linejoin="round"/>
</svg>
