<svg width="514" height="514" viewBox="0 0 514 514" fill="none" xmlns="http://www.w3.org/2000/svg">
<g clip-path="url(#clip0_230_182)">
<rect width="514" height="514" fill="black"/>
<path d="M401 56V236C401 261.088 401 273.632 399.1 284.092C390.313 332.46 352.46 370.313 304.092 379.1C293.632 381 281.088 381 256 381V381C230.912 381 218.368 381 207.908 379.1C159.54 370.313 121.687 332.46 112.9 284.092C111 273.632 111 261.088 111 236V56" stroke="#C23967" stroke-width="5"/>
<path d="M131 56.5V216C131 229.931 131 236.896 131.63 242.758C137.161 294.203 177.797 334.839 229.242 340.37C235.104 341 242.069 341 256 341V341C269.931 341 276.896 341 282.758 340.37C334.203 334.839 374.839 294.203 380.37 242.758C381 236.896 381 229.931 381 216V56" stroke="#C23967" stroke-width="5"/>
<path d="M151 56V196C151 211.792 151 219.689 152.011 226.301C157.826 264.33 187.67 294.174 225.699 299.989C232.311 301 240.208 301 256 301V301C271.792 301 279.689 301 286.301 299.989C324.33 294.174 354.174 264.33 359.989 226.301C361 219.689 361 211.792 361 196V56" stroke="#C23967" stroke-width="5"/>
<path d="M341 55.5V176C341 188.076 341 194.114 340.277 199.176C335.754 230.859 310.859 255.754 279.176 260.277C274.114 261 268.076 261 256 261V261C243.924 261 237.886 261 232.824 260.277C201.141 255.754 176.246 230.859 171.723 199.176C171 194.114 171 188.076 171 176V55.5" stroke="#C23967" stroke-width="5"/>
<path d="M191 56V156C191 191.899 220.101 221 256 221V221C291.899 221 321 191.899 321 156V56" stroke="#C23967" stroke-width="5"/>
<path d="M211 56V136C211 160.853 231.147 181 256 181V181C280.853 181 301 160.853 301 136V56" stroke="#C23967" stroke-width="5"/>
<path d="M231 56V116C231 129.807 242.193 141 256 141V141C269.807 141 281 129.807 281 116V56" stroke="#C23967" stroke-width="5"/>
<path d="M245 56V90C245 96.0751 249.925 101 256 101V101C262.075 101 267 96.0751 267 90V56" stroke="#C23967" stroke-width="5"/>
<path d="M257 379V523.5" stroke="#C23967" stroke-width="5"/>
</g>
<defs>
<clipPath id="clip0_230_182">
<rect width="514" height="514" fill="white"/>
</clipPath>
</defs>
</svg>
